<svg id="Layer_1" data-name="Layer 1" xmlns="http://www.w3.org/2000/svg" xmlns:xlink="http://www.w3.org/1999/xlink" viewBox="0 0 181.16 180.82"><defs><style>.cls-1{fill:#300;}.cls-2,.cls-3,.cls-4,.cls-8{stroke:#000;}.cls-2,.cls-5{stroke-width:0.5px;}.cls-2{fill:url(#linear-gradient);}.cls-11,.cls-12,.cls-3,.cls-4,.cls-5,.cls-7,.cls-9{fill:none;}.cls-12,.cls-3{stroke-width:0.25px;}.cls-3{stroke-dasharray:4 2;}.cls-5,.cls-7{stroke:#300;}.cls-6{fill:#fff;}.cls-8{fill:url(#linear-gradient-2);}.cls-11,.cls-12,.cls-9{stroke:#369;}.cls-9{stroke-width:0.75px;}.cls-10{fill:#369;}.cls-12{stroke-dasharray:2 2;}</style><linearGradient id="linear-gradient" x1="54.2" y1="174.02" x2="54.2" y2="183.75" gradientTransform="matrix(1, 0, 0, -1, 0, 184)" gradientUnits="userSpaceOnUse"><stop offset="0" stop-color="#fff"/><stop offset="0.1" stop-color="#fafbfc"/><stop offset="0.23" stop-color="#ebeff2"/><stop offset="0.36" stop-color="#d2dae3"/><stop offset="0.5" stop-color="#b0becd"/><stop offset="0.65" stop-color="#849ab2"/><stop offset="0.81" stop-color="#4e6d90"/><stop offset="0.96" stop-color="#0f3a69"/><stop offset="1" stop-color="#002d5f"/></linearGradient><linearGradient id="linear-gradient-2" x1="108.93" y1="69.97" x2="124.95" y2="85.99" gradientTransform="matrix(1, 0, 0, -1, 0, 184)" gradientUnits="userSpaceOnUse"><stop offset="0" stop-color="#fff"/><stop offset="0.1" stop-color="#fafdfe"/><stop offset="0.23" stop-color="#ebf6fc"/><stop offset="0.36" stop-color="#d2ecf9"/><stop offset="0.5" stop-color="#b0ddf5"/><stop offset="0.65" stop-color="#84caf0"/><stop offset="0.81" stop-color="#4eb3e9"/><stop offset="0.96" stop-color="#0f99e1"/><stop offset="1" stop-color="#0092df"/></linearGradient></defs><circle class="cls-1" cx="54.17" cy="9.81" r="1.58"/><rect class="cls-2" x="0.25" y="0.25" width="107.9" height="9.73"/><path d="M102.31,79.14l2-9.56h1.27l-1.76,8.47h5l-.23,1.09Z"/><line class="cls-3" x1="54.2" y1="9.98" x2="54.2" y2="170.31"/><line class="cls-4" x1="54.23" y1="10.06" x2="111.23" y2="97.73"/><path class="cls-5" d="M54.19,44.35c6.05,0,14.18-1.76,18.56-6.56"/><path class="cls-6" d="M78.79,60.52l-2.86-.73,0-.1L80,58l3.73-2.34q-1.22,1.84-2.41,3.69l-1.79,4-.09,0Z"/><path class="cls-7" d="M54,68c8.24,0,19.31-2.16,25.28-8"/><path class="cls-1" d="M78.79,60.52l-2.86-.73,0-.1L80,58l3.73-2.34q-1.22,1.84-2.41,3.69l-1.79,4-.09,0Z"/><circle class="cls-8" cx="116.94" cy="106.02" r="11.33"/><path d="M131.06,109.3l1.45-6.92h1.18l-.24,1.14a4.76,4.76,0,0,1,1.17-1,2.42,2.42,0,0,1,1.13-.28,1.69,1.69,0,0,1,1.08.35,1.57,1.57,0,0,1,.57,1,3.8,3.8,0,0,1,1.11-1,2.47,2.47,0,0,1,1.23-.33,1.84,1.84,0,0,1,1.3.41,1.52,1.52,0,0,1,.43,1.16,6.06,6.06,0,0,1-.15,1l-.93,4.46h-1.18l.95-4.57a4.72,4.72,0,0,0,.13-.81.7.7,0,0,0-.22-.53.86.86,0,0,0-.61-.2,2.13,2.13,0,0,0-1.07.32,2.28,2.28,0,0,0-.85.84,5.71,5.71,0,0,0-.53,1.59l-.71,3.36h-1.18l1-4.67a3.62,3.62,0,0,0,.1-.68.72.72,0,0,0-.76-.76,2.12,2.12,0,0,0-1.05.32,2.56,2.56,0,0,0-.9.89,5.34,5.34,0,0,0-.57,1.63l-.68,3.27Z"/><path d="M67.76,47.78l.88-2.37h1.18l-1.54,4.23a3.8,3.8,0,0,0,.21.76,2,2,0,0,0,.28.44,2.4,2.4,0,0,0,.28.23.48.48,0,0,0,.27.09.58.58,0,0,0,.39-.18A1.08,1.08,0,0,0,70,50.6s0-.2.09-.52h.24l0,.79a1.25,1.25,0,0,1-.13.54,1.13,1.13,0,0,1-.35.51.78.78,0,0,1-.47.2.9.9,0,0,1-.54-.3A5.25,5.25,0,0,1,68,50.25c-.15.25-.32.53-.49.84a2.13,2.13,0,0,1-1,.78c-.27.09-.53.16-.78.22a3.25,3.25,0,0,1-.54.06,3,3,0,0,1-1.18-.29,2.12,2.12,0,0,1-.95-.8,4.1,4.1,0,0,1-.44-1,4.29,4.29,0,0,1-.13-1.15c0-.2,0-.35,0-.47s.05-.48.09-.74A2.7,2.7,0,0,1,63,46.61a3.09,3.09,0,0,1,.95-1,2.6,2.6,0,0,1,1.5-.42l.18,0h.12l.26,0a1.5,1.5,0,0,1,.61.31,3.14,3.14,0,0,1,.69.81A3.45,3.45,0,0,1,67.76,47.78ZM67,50l.41-1.09c-.07-.51-.15-1-.23-1.39a2.52,2.52,0,0,0-.32-.83,3.86,3.86,0,0,0-.45-.56,1.76,1.76,0,0,0-.57-.31,1.69,1.69,0,0,0-.53-.09.71.71,0,0,0-.41.12,2.76,2.76,0,0,0-.39.39,2.19,2.19,0,0,0-.35.67,5.06,5.06,0,0,0-.19.9q-.06.57-.06.9a6.37,6.37,0,0,0,0,.89l0,.14c0,.06,0,.12,0,.18l0,.16s0,.09,0,.14a3.44,3.44,0,0,0,.16.53,1.88,1.88,0,0,0,.45.6,1,1,0,0,0,.73.32,1,1,0,0,0,.4-.09,1.46,1.46,0,0,0,.41-.26,2.38,2.38,0,0,0,.45-.58A5,5,0,0,0,67,50Z"/><path d="M41.84,18.47a5.79,5.79,0,0,1,1.48-4.14,4.73,4.73,0,0,1,3.58-1.58,3.89,3.89,0,0,1,2.91,1.16A4.32,4.32,0,0,1,50.94,17a5.92,5.92,0,0,1-.57,2.59,5.36,5.36,0,0,1-1.07,1.54,4.75,4.75,0,0,1-1.38,1,4.62,4.62,0,0,1-2.07.47,4,4,0,0,1-2.09-.55,3.5,3.5,0,0,1-1.43-1.52A4.59,4.59,0,0,1,41.84,18.47Zm1.26.06a3.49,3.49,0,0,0,.35,1.55,2.57,2.57,0,0,0,1,1.1,2.91,2.91,0,0,0,1.45.4,3,3,0,0,0,1.4-.35,4,4,0,0,0,1.19-1,4.48,4.48,0,0,0,.83-1.53,5.65,5.65,0,0,0,.3-1.79,3.17,3.17,0,0,0-.79-2.27,2.6,2.6,0,0,0-2-.85,3.46,3.46,0,0,0-2.64,1.28A5,5,0,0,0,43.1,18.53Z"/><path d="M127.74,133.69l.88-2.38h1.17l-1.53,4.23a3.74,3.74,0,0,0,.21.77,1.76,1.76,0,0,0,.28.43,1.66,1.66,0,0,0,.28.23.48.48,0,0,0,.27.09.58.58,0,0,0,.39-.18,1,1,0,0,0,.24-.38s0-.2.09-.52h.24l0,.79a1.4,1.4,0,0,1-.12.55,1.19,1.19,0,0,1-.36.51.82.82,0,0,1-.47.2.86.86,0,0,1-.53-.31,5.16,5.16,0,0,1-.77-1.56c-.16.25-.32.53-.5.84a2.06,2.06,0,0,1-1,.78l-.78.21a3.57,3.57,0,0,1-.55.07,2.85,2.85,0,0,1-1.18-.3,2,2,0,0,1-.94-.8,4.34,4.34,0,0,1-.45-1,4.73,4.73,0,0,1-.13-1.15c0-.19,0-.35,0-.47a5.31,5.31,0,0,1,.09-.74,2.66,2.66,0,0,1,.39-1,3.09,3.09,0,0,1,.94-1,2.67,2.67,0,0,1,1.5-.41h.19l.12,0,.25,0a1.55,1.55,0,0,1,.62.3,3.22,3.22,0,0,1,.69.82A3.4,3.4,0,0,1,127.74,133.69Zm-.75,2.24.4-1.1c-.07-.51-.15-1-.22-1.39a2.7,2.7,0,0,0-.32-.82,3.34,3.34,0,0,0-.46-.56,1.63,1.63,0,0,0-.56-.31,1.78,1.78,0,0,0-.53-.09.74.74,0,0,0-.42.12,2.29,2.29,0,0,0-.39.39,2,2,0,0,0-.34.66,4.56,4.56,0,0,0-.19.91c0,.38-.07.68-.07.9a6.37,6.37,0,0,0,0,.89s0,.08,0,.14l0,.18c0,.05,0,.11,0,.15s0,.09,0,.14a2.51,2.51,0,0,0,.16.54,1.69,1.69,0,0,0,.44.6,1,1,0,0,0,.73.32,1,1,0,0,0,.41-.09,2,2,0,0,0,.41-.26,2.48,2.48,0,0,0,.44-.59A5.25,5.25,0,0,0,127,135.93Z"/><path d="M59.25,115l1.19-5.67h1l-.2.94a3.8,3.8,0,0,1,1-.84,1.93,1.93,0,0,1,.92-.23,1.42,1.42,0,0,1,.88.28,1.35,1.35,0,0,1,.47.79,3,3,0,0,1,.91-.8,2,2,0,0,1,1-.27,1.52,1.52,0,0,1,1.07.34,1.25,1.25,0,0,1,.35.94,5,5,0,0,1-.12.87L66.88,115h-1l.78-3.75a3.2,3.2,0,0,0,.1-.65.56.56,0,0,0-.18-.44.67.67,0,0,0-.49-.16,1.68,1.68,0,0,0-.88.26,1.9,1.9,0,0,0-.7.68,4.74,4.74,0,0,0-.43,1.31L63.54,115h-1l.8-3.83a3.53,3.53,0,0,0,.08-.55.61.61,0,0,0-.17-.45.64.64,0,0,0-.45-.17,1.8,1.8,0,0,0-.87.26,2,2,0,0,0-.73.73,4.24,4.24,0,0,0-.46,1.33L60.22,115Z"/><path d="M68.31,115.52l1,.09a1,1,0,0,0,.08.5.6.6,0,0,0,.29.25,1.63,1.63,0,0,0,.68.12,1.59,1.59,0,0,0,1.26-.45,3.65,3.65,0,0,0,.46-1.33l.1-.45a2.29,2.29,0,0,1-1.61.76,1.85,1.85,0,0,1-1.43-.63,2.54,2.54,0,0,1-.58-1.79,3.6,3.6,0,0,1,1.54-3,2.35,2.35,0,0,1,1.29-.4,1.88,1.88,0,0,1,1.72,1l.19-.93h.89L73,114.81a4.87,4.87,0,0,1-.49,1.41,2.21,2.21,0,0,1-.85.78,2.77,2.77,0,0,1-1.25.28,3.49,3.49,0,0,1-1.18-.18,1.55,1.55,0,0,1-.73-.51,1.33,1.33,0,0,1-.24-.78A1.5,1.5,0,0,1,68.31,115.52Zm1.2-3a2.77,2.77,0,0,0,.11.88,1.35,1.35,0,0,0,.46.62,1.07,1.07,0,0,0,.66.22,1.63,1.63,0,0,0,.94-.33,2.35,2.35,0,0,0,.76-1,3.33,3.33,0,0,0,.29-1.33,1.57,1.57,0,0,0-.38-1.11,1.26,1.26,0,0,0-1-.42,1.46,1.46,0,0,0-.69.19,2.07,2.07,0,0,0-.61.58,2.66,2.66,0,0,0-.43.93A3.28,3.28,0,0,0,69.51,112.5Z"/><path d="M75.8,113.07l1-.06a1.85,1.85,0,0,0,.12.71,1,1,0,0,0,.48.48,1.58,1.58,0,0,0,.8.19,1.51,1.51,0,0,0,1-.26.76.76,0,0,0,.32-.6.72.72,0,0,0-.19-.48,3.32,3.32,0,0,0-1-.55,9.71,9.71,0,0,1-1-.46,1.57,1.57,0,0,1-.54-.51,1.3,1.3,0,0,1-.18-.68,1.49,1.49,0,0,1,.53-1.16,2.14,2.14,0,0,1,1.49-.48,2.39,2.39,0,0,1,1.63.5,1.74,1.74,0,0,1,.58,1.3l-1,.06a1.06,1.06,0,0,0-.36-.81,1.42,1.42,0,0,0-1-.3,1.19,1.19,0,0,0-.78.23.64.64,0,0,0-.28.5.62.62,0,0,0,.24.47,4.15,4.15,0,0,0,.83.42,5.56,5.56,0,0,1,1.39.76,1.41,1.41,0,0,1,.46,1.08,1.44,1.44,0,0,1-.26.82,1.73,1.73,0,0,1-.79.65,3,3,0,0,1-1.25.25,2.86,2.86,0,0,1-1.67-.49A1.72,1.72,0,0,1,75.8,113.07Z"/><path d="M81.14,115l1.18-5.67h1L82.1,115Zm1.4-6.73.23-1.09h1l-.23,1.09Z"/><path d="M83.6,115l1.18-5.67h.88l-.21,1a4.65,4.65,0,0,1,1.07-.85,2.1,2.1,0,0,1,1-.27,1.5,1.5,0,0,1,1.08.38,1.28,1.28,0,0,1,.39,1,5.54,5.54,0,0,1-.13,1L88.15,115h-1l.75-3.59a3.72,3.72,0,0,0,.11-.77.58.58,0,0,0-.19-.46.8.8,0,0,0-.56-.18,1.89,1.89,0,0,0-1.32.53,3.4,3.4,0,0,0-.85,1.84L84.57,115Z"/><path d="M96.62,111l.83-2.26h1.12l-1.46,4a3.52,3.52,0,0,0,.2.73,1.43,1.43,0,0,0,.27.41,1.21,1.21,0,0,0,.27.22.43.43,0,0,0,.25.09.52.52,0,0,0,.37-.18.81.81,0,0,0,.23-.36s0-.19.09-.49H99l0,.75a1.28,1.28,0,0,1-.11.52,1.15,1.15,0,0,1-.35.48.74.74,0,0,1-.44.2.82.82,0,0,1-.51-.3,4.73,4.73,0,0,1-.73-1.49q-.22.36-.48.81a1.94,1.94,0,0,1-.9.73,6.11,6.11,0,0,1-.75.21,3,3,0,0,1-.52.06,2.67,2.67,0,0,1-1.12-.28,1.9,1.9,0,0,1-.9-.76,4.08,4.08,0,0,1-.42-1,3.88,3.88,0,0,1-.13-1.09c0-.19,0-.34,0-.45s0-.46.09-.71a2.66,2.66,0,0,1,.37-1A3.11,3.11,0,0,1,93,109a2.46,2.46,0,0,1,1.43-.4l.18,0h.11l.25,0a1.53,1.53,0,0,1,.58.29,3.08,3.08,0,0,1,.66.78A3.43,3.43,0,0,1,96.62,111Zm-.72,2.14.39-1c-.07-.49-.14-.93-.22-1.33a2.71,2.71,0,0,0-.3-.79,4,4,0,0,0-.44-.53,1.73,1.73,0,0,0-1-.38.71.71,0,0,0-.39.11,2.23,2.23,0,0,0-.37.38,1.76,1.76,0,0,0-.33.63,3.53,3.53,0,0,0-.18.86,6.48,6.48,0,0,0-.07.86,5.93,5.93,0,0,0,0,.85,1.3,1.3,0,0,1,0,.13,1,1,0,0,1,0,.17l0,.15s0,.09,0,.13a2.29,2.29,0,0,0,.16.51,1.66,1.66,0,0,0,.42.57.91.91,0,0,0,1.08.22,1.72,1.72,0,0,0,.39-.24,2.37,2.37,0,0,0,.42-.56A4.68,4.68,0,0,0,95.9,113.15Z"/><line class="cls-9" x1="116.89" y1="106.19" x2="93.65" y2="120.86"/><path class="cls-10" d="M94.11,120.58l2,1,0,.07-3.27.61-3.1,1.12L92,121,94,118.36h.07Z"/><path class="cls-5" d="M117,130.44c4.06,0,9.5-1.49,12.44-5.51"/><path class="cls-6" d="M117,158.29l2.52-1.54.06.09L117.93,161c-.32,1.43-.63,2.87-1,4.3-.31-1.43-.63-2.87-.94-4.3l-1.64-4.11,0-.09Z"/><line class="cls-11" x1="116.98" y1="107.54" x2="116.98" y2="159"/><path class="cls-10" d="M117,158.29l2.52-1.54.06.09L117.93,161c-.32,1.43-.63,2.87-1,4.3-.31-1.43-.63-2.87-.94-4.3l-1.64-4.11,0-.09Z"/><path class="cls-6" d="M141.13,142.93l1.28-2.66.09,0,.88,4.34,1.56,4.12-3.14-3.09-3.62-2.55V143Z"/><line class="cls-9" x1="117.42" y1="106.56" x2="141.52" y2="143.53"/><path class="cls-10" d="M141.23,143.08l1-2,.07,0,.66,3.25,1.16,3.09-2.35-2.32L139,143.23v-.07Z"/><circle class="cls-1" cx="116.94" cy="106.02" r="1.58"/><line class="cls-12" x1="89.5" y1="123.02" x2="116.86" y2="165.1"/><line class="cls-12" x1="144.06" y1="147.42" x2="116.96" y2="165.04"/><path d="M107.13,178.05l1.45-6.92h1.18l-.24,1.14a4.78,4.78,0,0,1,1.18-1,2.38,2.38,0,0,1,1.12-.28,1.69,1.69,0,0,1,1.08.35,1.57,1.57,0,0,1,.57,1,3.8,3.8,0,0,1,1.11-1,2.47,2.47,0,0,1,1.23-.33,1.84,1.84,0,0,1,1.3.41,1.53,1.53,0,0,1,.44,1.16,6.06,6.06,0,0,1-.15,1.05l-.94,4.46h-1.18l1-4.57a4.44,4.44,0,0,0,.12-.81.69.69,0,0,0-.21-.53.9.9,0,0,0-.61-.2,2.19,2.19,0,0,0-1.08.32,2.36,2.36,0,0,0-.85.84,5.71,5.71,0,0,0-.53,1.59l-.7,3.36H111.2l1-4.67a3.9,3.9,0,0,0,.11-.68.74.74,0,0,0-.21-.55.75.75,0,0,0-.55-.21,2.15,2.15,0,0,0-1.06.32,2.61,2.61,0,0,0-.89.89,5.34,5.34,0,0,0-.57,1.63l-.69,3.27Z"/><path d="M118.2,178.68l1.19.11a1.16,1.16,0,0,0,.1.61.77.77,0,0,0,.35.31,2.14,2.14,0,0,0,.83.14,1.93,1.93,0,0,0,1.54-.55,4.29,4.29,0,0,0,.56-1.62l.12-.56a2.74,2.74,0,0,1-2,.93,2.25,2.25,0,0,1-1.75-.77,3.12,3.12,0,0,1-.71-2.19A4.27,4.27,0,0,1,119,173a4.18,4.18,0,0,1,1.32-1.48,2.94,2.94,0,0,1,1.59-.5,2.3,2.3,0,0,1,2.1,1.29l.23-1.13h1.08L124,177.81a5.41,5.41,0,0,1-.6,1.72,2.58,2.58,0,0,1-1,1,3.38,3.38,0,0,1-1.53.33,4.38,4.38,0,0,1-1.44-.21,1.79,1.79,0,0,1-.9-.63,1.56,1.56,0,0,1-.3-.95A1.45,1.45,0,0,1,118.2,178.68Zm1.47-3.69a3,3,0,0,0,.14,1.07,1.63,1.63,0,0,0,.55.76,1.32,1.32,0,0,0,.81.27,2,2,0,0,0,1.15-.41,2.78,2.78,0,0,0,.93-1.26,4.19,4.19,0,0,0,.36-1.63,1.9,1.9,0,0,0-.48-1.36,1.51,1.51,0,0,0-1.17-.5,1.6,1.6,0,0,0-.83.23,2.45,2.45,0,0,0-.75.7,3.28,3.28,0,0,0-.53,1.13A4.15,4.15,0,0,0,119.67,175Z"/><path class="cls-6" d="M123.46,168.23l-1.1-1.8.06,0,2.94,1.16,3.07.68-3.07.67-2.94,1.17-.06,0Z"/><line class="cls-5" x1="118.72" y1="168.23" x2="123.97" y2="168.23"/><path class="cls-1" d="M123.71,168.23l-.55-.9,0,0,1.47.58,1.54.34-1.54.34-1.47.58,0,0Z"/><path d="M139.39,137.75l1.18-5.66h1l-.2.93a3.73,3.73,0,0,1,1-.83,1.9,1.9,0,0,1,.92-.23,1.36,1.36,0,0,1,.88.28,1.3,1.3,0,0,1,.46.78,3.37,3.37,0,0,1,.92-.8,2.07,2.07,0,0,1,1-.26,1.45,1.45,0,0,1,1.06.34,1.22,1.22,0,0,1,.36.94,5.08,5.08,0,0,1-.12.86l-.77,3.65h-1l.78-3.74a4.39,4.39,0,0,0,.1-.66.57.57,0,0,0-.18-.44.74.74,0,0,0-.49-.16,1.67,1.67,0,0,0-.88.27,1.83,1.83,0,0,0-.7.68,4.58,4.58,0,0,0-.44,1.31l-.57,2.74h-1l.8-3.82a2.9,2.9,0,0,0,.09-.56.6.6,0,0,0-.63-.62,1.69,1.69,0,0,0-.86.27,2,2,0,0,0-.73.72,4.59,4.59,0,0,0-.47,1.33l-.56,2.68Z"/><path d="M148.44,138.27l1,.09a.94.94,0,0,0,.08.49.57.57,0,0,0,.29.26,1.61,1.61,0,0,0,.67.12,1.53,1.53,0,0,0,1.26-.46,3.47,3.47,0,0,0,.47-1.32l.09-.46a2.23,2.23,0,0,1-1.6.77,1.9,1.9,0,0,1-1.44-.64,2.57,2.57,0,0,1-.58-1.79,3.52,3.52,0,0,1,.46-1.75,3.32,3.32,0,0,1,1.09-1.21,2.34,2.34,0,0,1,1.29-.41,1.88,1.88,0,0,1,1.72,1.06l.19-.93h.89l-1.14,5.47a4.57,4.57,0,0,1-.5,1.41,2.11,2.11,0,0,1-.84.78,2.77,2.77,0,0,1-1.25.27,3.72,3.72,0,0,1-1.18-.17,1.45,1.45,0,0,1-.73-.52,1.23,1.23,0,0,1-.25-.77A1.43,1.43,0,0,1,148.44,138.27Zm1.21-3a2.45,2.45,0,0,0,.11.87,1.38,1.38,0,0,0,.46.63,1.07,1.07,0,0,0,.65.21,1.63,1.63,0,0,0,.95-.33,2.34,2.34,0,0,0,.76-1,3.55,3.55,0,0,0,.29-1.33,1.57,1.57,0,0,0-.39-1.12,1.27,1.27,0,0,0-1-.41,1.32,1.32,0,0,0-.68.19,2.07,2.07,0,0,0-.61.58,2.71,2.71,0,0,0-.44.92A3.75,3.75,0,0,0,149.65,135.25Z"/><path d="M159.76,135.69l1,.1a3.24,3.24,0,0,1-1,1.58,2.42,2.42,0,0,1-1.52.51,2,2,0,0,1-1.5-.59,2.33,2.33,0,0,1-.57-1.67,4.71,4.71,0,0,1,.37-1.83,2.86,2.86,0,0,1,1.05-1.36,2.74,2.74,0,0,1,1.57-.47,2,2,0,0,1,1.44.52,1.78,1.78,0,0,1,.54,1.36l-.95.06a1.15,1.15,0,0,0-.32-.84,1.09,1.09,0,0,0-.8-.3,1.51,1.51,0,0,0-1,.36,2.4,2.4,0,0,0-.67,1.12,4.72,4.72,0,0,0-.24,1.44,1.56,1.56,0,0,0,.32,1.09,1,1,0,0,0,.79.37,1.4,1.4,0,0,0,.9-.36A2.37,2.37,0,0,0,159.76,135.69Z"/><path d="M161.48,135.6a4,4,0,0,1,1-2.74,2.69,2.69,0,0,1,2.11-.9,2.2,2.2,0,0,1,1.65.64,2.36,2.36,0,0,1,.63,1.73,4.14,4.14,0,0,1-.4,1.82,2.81,2.81,0,0,1-1.12,1.28,2.86,2.86,0,0,1-1.53.45,2.57,2.57,0,0,1-1.21-.28,2,2,0,0,1-.82-.8A2.48,2.48,0,0,1,161.48,135.6Zm1-.09a1.74,1.74,0,0,0,.38,1.21,1.26,1.26,0,0,0,1,.41,1.66,1.66,0,0,0,.61-.12,1.83,1.83,0,0,0,.57-.38,2.59,2.59,0,0,0,.44-.59,3.69,3.69,0,0,0,.3-.7,3.38,3.38,0,0,0,.16-1,1.73,1.73,0,0,0-.38-1.19,1.29,1.29,0,0,0-1-.42,1.61,1.61,0,0,0-.82.21,2.27,2.27,0,0,0-.68.64,2.73,2.73,0,0,0-.44,1A3.79,3.79,0,0,0,162.45,135.51Z"/><path d="M167.48,135.82l1-.06a1.91,1.91,0,0,0,.13.71,1.11,1.11,0,0,0,.48.48,1.66,1.66,0,0,0,.8.18,1.53,1.53,0,0,0,1-.25.71.71,0,0,0,.13-1.08,3.24,3.24,0,0,0-1-.55c-.51-.22-.83-.38-1-.46a1.65,1.65,0,0,1-.53-.52,1.2,1.2,0,0,1-.19-.68,1.48,1.48,0,0,1,.54-1.15,2.14,2.14,0,0,1,1.49-.48,2.36,2.36,0,0,1,1.62.49,1.69,1.69,0,0,1,.58,1.3l-.94.07a1.14,1.14,0,0,0-.36-.81,1.43,1.43,0,0,0-1-.3,1.17,1.17,0,0,0-.78.23.63.63,0,0,0-.27.49.59.59,0,0,0,.24.47,3.81,3.81,0,0,0,.82.43,5.36,5.36,0,0,1,1.4.76,1.41,1.41,0,0,1,.46,1.07,1.56,1.56,0,0,1-.26.83,1.78,1.78,0,0,1-.79.65,3,3,0,0,1-1.25.24,2.84,2.84,0,0,1-1.67-.48A1.71,1.71,0,0,1,167.48,135.82Z"/><path d="M178.76,133.76l.83-2.26h1.12l-1.46,4a3.52,3.52,0,0,0,.2.73,1.8,1.8,0,0,0,.27.41,1.61,1.61,0,0,0,.27.22.43.43,0,0,0,.25.09.54.54,0,0,0,.37-.18.91.91,0,0,0,.23-.36s0-.19.09-.5h.23l0,.76a1.52,1.52,0,0,1-.11.52,1.15,1.15,0,0,1-.35.48.72.72,0,0,1-.44.19.8.8,0,0,1-.51-.29,4.85,4.85,0,0,1-.73-1.49c-.15.24-.31.5-.48.8a2,2,0,0,1-.9.74l-.75.21a3,3,0,0,1-.52.06,2.83,2.83,0,0,1-1.12-.28,1.92,1.92,0,0,1-.9-.77,3.76,3.76,0,0,1-.42-1,3.83,3.83,0,0,1-.13-1.09c0-.19,0-.33,0-.45s.05-.45.09-.7a2.6,2.6,0,0,1,.37-1,3.14,3.14,0,0,1,.9-.92,2.53,2.53,0,0,1,1.43-.39h.18l.11,0,.25,0a1.51,1.51,0,0,1,.58.3,2.83,2.83,0,0,1,.66.77A3.55,3.55,0,0,1,178.76,133.76ZM178,135.9l.39-1.05c-.07-.48-.15-.92-.22-1.32a2.37,2.37,0,0,0-.31-.79,3.34,3.34,0,0,0-.43-.53,1.57,1.57,0,0,0-.54-.29,1.51,1.51,0,0,0-.5-.09.77.77,0,0,0-.4.11,3.1,3.1,0,0,0-.37.37,2.29,2.29,0,0,0-.33.63,4.93,4.93,0,0,0-.18.87,8.11,8.11,0,0,0-.06.85,5.73,5.73,0,0,0,0,.85s0,.08,0,.14a1.11,1.11,0,0,0,0,.17.78.78,0,0,1,0,.14s0,.09,0,.14a2.88,2.88,0,0,0,.15.51,1.66,1.66,0,0,0,.42.57.92.92,0,0,0,1.08.21,1.33,1.33,0,0,0,.4-.24,2.43,2.43,0,0,0,.42-.56A4.67,4.67,0,0,0,178,135.9Z"/></svg>